<svg width="82" height="40" viewBox="0 0 82 40" fill="none" xmlns="http://www.w3.org/2000/svg">
<g clip-path="url(#clip0_1_10850)">
<path d="M0.0390625 32.4016L0.864829 32.3217C0.918977 32.6013 1.01374 32.8009 1.17618 32.934C1.32509 33.0671 1.54168 33.1203 1.79889 33.1203C2.06963 33.1203 2.28623 33.0671 2.4216 32.9473C2.55697 32.8275 2.63819 32.6944 2.63819 32.548C2.63819 32.4548 2.61112 32.3617 2.54343 32.2951C2.48928 32.2286 2.38099 32.162 2.23208 32.1088C2.13732 32.0688 1.90719 32.0156 1.54169 31.9224C1.08142 31.816 0.756531 31.6695 0.580548 31.5098C0.323342 31.2836 0.187972 31.004 0.187972 30.6713C0.187972 30.4583 0.255657 30.2587 0.377491 30.0723C0.499325 29.886 0.675308 29.7529 0.90544 29.6464C1.13557 29.5532 1.40631 29.5 1.7312 29.5C2.25915 29.5 2.66527 29.6198 2.93601 29.8461C3.20675 30.0723 3.34212 30.3785 3.35566 30.7645L2.50282 30.7911C2.46221 30.5781 2.38099 30.4184 2.27269 30.3252C2.15086 30.2321 1.97487 30.1788 1.7312 30.1788C1.48754 30.1788 1.28448 30.2321 1.14911 30.3252C1.05435 30.3918 1.01374 30.4716 1.01374 30.5781C1.01374 30.6713 1.05435 30.7645 1.13557 30.831C1.24387 30.9242 1.50107 31.0174 1.92072 31.1105C2.34038 31.2037 2.63819 31.3102 2.84125 31.4167C3.04431 31.5231 3.19322 31.6562 3.31505 31.8426C3.42335 32.0289 3.4775 32.2419 3.4775 32.5081C3.4775 32.7477 3.40981 32.9739 3.27444 33.1869C3.13907 33.3999 2.94955 33.5463 2.70588 33.6528C2.46221 33.7592 2.15086 33.7992 1.78535 33.7992C1.24387 33.7992 0.837754 33.6794 0.553474 33.4265C0.269194 33.2268 0.0932111 32.8675 0.0390625 32.4016Z" fill="#00489A"/>
<path d="M4.38672 29.5938H5.19895V30.3258H4.38672V29.5938ZM4.38672 30.7384H5.19895V33.7598H4.38672V30.7384Z" fill="#00489A"/>
<path d="M9.00349 33.7653H8.19127V32.2213C8.19127 31.8886 8.17773 31.6889 8.13712 31.5825C8.09651 31.4893 8.04236 31.4094 7.97467 31.3562C7.89345 31.3029 7.79869 31.2763 7.69039 31.2763C7.55502 31.2763 7.41965 31.3163 7.31135 31.3961C7.20305 31.476 7.12183 31.5691 7.08122 31.7022C7.04061 31.822 7.02707 32.0616 7.02707 32.3944V33.7653H6.21484V30.7439H6.97292V31.1832C7.24367 30.8371 7.58209 30.6641 7.98821 30.6641C8.16419 30.6641 8.32664 30.6907 8.47555 30.7572C8.62445 30.8238 8.73275 30.9036 8.81397 30.9968C8.8952 31.09 8.94934 31.2098 8.97642 31.3296C9.00349 31.4494 9.01703 31.6357 9.01703 31.862V33.7653" fill="#00489A"/>
<path d="M9.9208 33.9595L10.8413 34.0526C10.8549 34.1724 10.8955 34.239 10.9496 34.2922C11.0308 34.3588 11.1527 34.3854 11.3151 34.3854C11.5317 34.3854 11.6942 34.3588 11.7889 34.2922C11.8566 34.2523 11.9108 34.1857 11.9514 34.0926C11.9784 34.026 11.992 33.9062 11.992 33.7199V33.2807C11.7483 33.6001 11.4505 33.7598 11.0715 33.7598C10.6518 33.7598 10.3269 33.5868 10.0968 33.2407C9.90726 32.9745 9.8125 32.6285 9.8125 32.2292C9.8125 31.7234 9.93433 31.3374 10.178 31.0712C10.4217 30.805 10.733 30.6719 11.0985 30.6719C11.4776 30.6719 11.7889 30.8316 12.0326 31.1644V30.7517H12.7907V33.467C12.7907 33.8264 12.7636 34.0926 12.6959 34.2656C12.6418 34.4386 12.547 34.5851 12.4387 34.6782C12.3304 34.7714 12.1815 34.8513 12.0055 34.9178C11.8295 34.971 11.5994 34.9977 11.3151 34.9977C10.7872 34.9977 10.4217 34.9045 10.2051 34.7315C9.98848 34.5584 9.88019 34.3322 9.88019 34.0526C9.9208 34.026 9.9208 33.9994 9.9208 33.9595ZM10.6518 32.1892C10.6518 32.5087 10.7195 32.7483 10.8413 32.8947C10.9632 33.0411 11.1256 33.1209 11.3016 33.1209C11.4911 33.1209 11.6671 33.0411 11.8025 32.8947C11.9378 32.7483 12.0055 32.522 12.0055 32.2159C12.0055 31.8964 11.9378 31.6701 11.816 31.5237C11.6942 31.3773 11.5182 31.2975 11.3287 31.2975C11.1391 31.2975 10.9767 31.364 10.8549 31.5237C10.7195 31.6568 10.6518 31.8831 10.6518 32.1892Z" fill="#00489A"/>
<path d="M14.6052 29.5938H13.793V33.7598H14.6052V29.5938Z" fill="#00489A"/>
<path d="M17.4095 32.8203L18.2217 32.9534C18.1134 33.2462 17.951 33.4592 17.7208 33.6189C17.4907 33.7786 17.22 33.8452 16.8815 33.8452C16.34 33.8452 15.9475 33.6721 15.6903 33.3261C15.4872 33.0466 15.3789 32.7005 15.3789 32.2746C15.3789 31.7688 15.5143 31.3828 15.785 31.09C16.0558 30.8105 16.3942 30.6641 16.8003 30.6641C17.2606 30.6641 17.6261 30.8105 17.8833 31.1033C18.154 31.4094 18.2759 31.862 18.2623 32.4742H16.2182C16.2182 32.7138 16.2859 32.9002 16.4213 33.0333C16.5431 33.1664 16.7055 33.2329 16.8951 33.2329C17.0304 33.2329 17.1252 33.2063 17.22 33.1264C17.3012 33.0732 17.3689 32.9667 17.4095 32.8203ZM17.4501 32.0084C17.4501 31.7688 17.3824 31.5958 17.2606 31.476C17.1387 31.3562 17.0034 31.2896 16.8409 31.2896C16.6649 31.2896 16.516 31.3562 16.3942 31.476C16.2724 31.6091 16.2182 31.7821 16.2182 32.0084H17.4501Z" fill="#00489A"/>
<path d="M20.9297 33.7598V29.5938H24.0703V30.2992H21.7961V31.2176H23.9079V31.923H21.7961V33.0677H24.1515V33.7598H20.9297Z" fill="#00489A"/>
<path d="M27.0754 33.7659V33.3134C26.9671 33.4731 26.8181 33.6062 26.6286 33.6993C26.4391 33.7925 26.2496 33.8458 26.0465 33.8458C25.8435 33.8458 25.654 33.8058 25.4915 33.7127C25.3291 33.6195 25.2072 33.4997 25.1395 33.34C25.0719 33.1802 25.0312 32.954 25.0312 32.6745V30.7578H25.8435V32.1421C25.8435 32.568 25.857 32.8209 25.8841 32.9274C25.9112 33.0205 25.9653 33.1004 26.0465 33.1536C26.1278 33.2069 26.2225 33.2335 26.3443 33.2335C26.4797 33.2335 26.6016 33.1936 26.7234 33.127C26.8317 33.0472 26.9129 32.954 26.9535 32.8475C26.9941 32.741 27.0077 32.4615 27.0077 32.0356V30.7578H27.8199V33.7659H27.0754Z" fill="#00489A"/>
<path d="M29.6208 33.7598H28.8086V30.7384H29.5667V31.1644C29.702 30.9647 29.8103 30.8316 29.9186 30.765C30.0269 30.6985 30.1352 30.6719 30.2706 30.6719C30.4601 30.6719 30.6361 30.7251 30.8121 30.8183L30.5684 31.5104C30.4331 31.4172 30.2977 31.3773 30.1894 31.3773C30.0811 31.3773 29.9728 31.4039 29.9051 31.4705C29.8239 31.537 29.7562 31.6435 29.7156 31.8032C29.675 31.963 29.6479 32.309 29.6479 32.8148V33.7598" fill="#00489A"/>
<path d="M31.1211 32.2158C31.1211 31.9496 31.1888 31.6968 31.3242 31.4439C31.4595 31.191 31.649 31.0046 31.8927 30.8715C32.1364 30.7384 32.4071 30.6719 32.7049 30.6719C33.1652 30.6719 33.5578 30.8183 33.8421 31.1111C34.1399 31.4172 34.2888 31.7899 34.2888 32.2425C34.2888 32.7083 34.1399 33.081 33.8421 33.3871C33.5442 33.6933 33.1652 33.8397 32.7049 33.8397C32.4207 33.8397 32.1499 33.7731 31.8927 33.6533C31.6355 33.5335 31.446 33.3472 31.3106 33.1076C31.1888 32.8547 31.1211 32.5619 31.1211 32.2158ZM31.9604 32.2558C31.9604 32.5619 32.0281 32.7882 32.177 32.9479C32.3259 33.1076 32.5019 33.1875 32.7185 33.1875C32.9351 33.1875 33.1111 33.1076 33.2464 32.9479C33.3953 32.7882 33.463 32.5619 33.463 32.2558C33.463 31.963 33.3953 31.7367 33.2464 31.577C33.0975 31.4172 32.9215 31.3374 32.7185 31.3374C32.5019 31.3374 32.3259 31.4172 32.177 31.577C32.0281 31.7234 31.9604 31.9496 31.9604 32.2558Z" fill="#00489A"/>
<path d="M36.957 33.7598V29.5938H38.3243C38.8522 29.5938 39.1771 29.6204 39.3396 29.6603C39.5832 29.7269 39.7863 29.8599 39.9487 30.0729C40.1112 30.2859 40.1924 30.5521 40.1924 30.8848C40.1924 31.1377 40.1518 31.3507 40.057 31.537C39.9623 31.7101 39.8404 31.8432 39.7051 31.9496C39.5562 32.0428 39.4073 32.1094 39.2583 32.1493C39.0553 32.1892 38.7575 32.2158 38.3649 32.2158H37.8099V33.7598H36.957ZM37.8099 30.2992V31.4838H38.2837C38.6221 31.4838 38.8387 31.4572 38.9605 31.4172C39.0688 31.364 39.1636 31.2974 39.2313 31.2043C39.299 31.1111 39.326 31.0046 39.326 30.8848C39.326 30.7251 39.2854 30.6053 39.1907 30.5121C39.0959 30.419 38.9876 30.3524 38.8522 30.3258C38.7439 30.2992 38.5409 30.2992 38.2295 30.2992H37.8099Z" fill="#00489A"/>
<path d="M41.6677 31.6623L40.9367 31.5292C41.0179 31.2364 41.1668 31.0234 41.3563 30.877C41.5594 30.7306 41.8572 30.6641 42.2633 30.6641C42.6288 30.6641 42.8996 30.704 43.0756 30.7839C43.2515 30.8637 43.3734 30.9702 43.4546 31.1033C43.5223 31.2364 43.5629 31.476 43.5629 31.822L43.5494 32.7537C43.5494 33.0199 43.5629 33.2196 43.59 33.3394C43.617 33.4592 43.6577 33.6056 43.7389 33.7387H42.9266C42.8996 33.6855 42.886 33.6056 42.8454 33.5124C42.8319 33.4592 42.8184 33.4326 42.8184 33.4192C42.683 33.5524 42.5341 33.6588 42.3716 33.7254C42.2092 33.7919 42.0467 33.8319 41.8708 33.8319C41.5594 33.8319 41.3022 33.752 41.1262 33.579C40.9502 33.4059 40.8555 33.193 40.8555 32.9401C40.8555 32.7671 40.8961 32.6206 40.9773 32.4875C41.0585 32.3544 41.1804 32.248 41.3293 32.1814C41.4782 32.1149 41.6948 32.0483 41.9791 31.9951C42.3581 31.9285 42.6153 31.862 42.7642 31.7954V31.7156C42.7642 31.5558 42.7236 31.4494 42.6424 31.3828C42.5611 31.3163 42.4122 31.2896 42.1956 31.2896C42.0467 31.2896 41.9384 31.3163 41.8572 31.3695C41.7895 31.4227 41.7218 31.5292 41.6677 31.6623ZM42.7642 32.3145C42.6559 32.3544 42.4935 32.3944 42.2633 32.4343C42.0332 32.4742 41.8978 32.5275 41.8166 32.5807C41.7083 32.6606 41.6542 32.7537 41.6542 32.8602C41.6542 32.9667 41.6948 33.0732 41.776 33.153C41.8572 33.2329 41.9655 33.2728 42.1009 33.2728C42.2498 33.2728 42.3852 33.2196 42.5205 33.1264C42.6153 33.0599 42.683 32.9667 42.7101 32.8602C42.7371 32.7937 42.7371 32.6606 42.7371 32.4742V32.3145H42.7642Z" fill="#00489A"/>
<path d="M44.1445 30.7422H45.0109L45.7419 32.8851L46.4594 30.7422H47.2987L46.2157 33.6438L46.0127 34.1762C45.945 34.3492 45.8773 34.4823 45.8096 34.5755C45.7419 34.6687 45.6742 34.7485 45.593 34.8018C45.5118 34.855 45.4035 34.9082 45.2816 34.9349C45.1598 34.9615 45.0244 34.9881 44.862 34.9881C44.6996 34.9881 44.5506 34.9748 44.4017 34.9349L44.3205 34.3093C44.4423 34.3359 44.5642 34.3492 44.6725 34.3492C44.862 34.3492 44.9974 34.296 45.0921 34.1895C45.1869 34.083 45.2546 33.9366 45.2952 33.7636L44.1445 30.7422Z" fill="#00489A"/>
<path d="M47.9471 30.7439H48.6917V31.1565C48.9624 30.8371 49.2873 30.6641 49.6528 30.6641C49.8559 30.6641 50.0183 30.704 50.1672 30.7839C50.3161 30.8637 50.4244 30.9835 50.5192 31.1432C50.6546 30.9835 50.8035 30.8637 50.9524 30.7839C51.1148 30.704 51.2773 30.6641 51.4533 30.6641C51.6834 30.6641 51.8729 30.704 52.0218 30.7972C52.1707 30.8903 52.2926 31.0234 52.3738 31.1965C52.4279 31.3296 52.455 31.5292 52.455 31.822V33.7653H51.6428V32.035C51.6428 31.7289 51.6157 31.5425 51.5616 31.4494C51.4803 31.3296 51.372 31.2763 51.2096 31.2763C51.1013 31.2763 50.993 31.3029 50.8847 31.3828C50.7899 31.4494 50.7087 31.5558 50.6681 31.6889C50.6275 31.822 50.6004 32.035 50.6004 32.3145V33.7653H49.7882V32.1149C49.7882 31.822 49.7746 31.6224 49.7476 31.5425C49.7205 31.4494 49.6799 31.3961 49.6122 31.3562C49.5445 31.3163 49.4633 31.2896 49.3685 31.2896C49.2467 31.2896 49.1384 31.3163 49.0301 31.3828C48.9353 31.4494 48.8541 31.5425 48.8135 31.6756C48.7729 31.7954 48.7458 32.0084 48.7458 32.3012V33.7653H47.9336V30.7439" fill="#00489A"/>
<path d="M55.2454 32.8203L56.0577 32.9534C55.9494 33.2462 55.7869 33.4592 55.5568 33.6189C55.3266 33.7786 55.0559 33.8452 54.7175 33.8452C54.176 33.8452 53.7834 33.6721 53.5262 33.3261C53.3231 33.0466 53.2148 32.7005 53.2148 32.2746C53.2148 31.7688 53.3502 31.3828 53.621 31.09C53.8917 30.8105 54.2301 30.6641 54.6362 30.6641C55.0965 30.6641 55.462 30.8105 55.7192 31.1033C55.99 31.4094 56.1118 31.862 56.0983 32.4742H54.0542C54.0542 32.7138 54.1218 32.9002 54.2572 33.0333C54.379 33.1664 54.5415 33.2329 54.731 33.2329C54.8664 33.2329 54.9747 33.2063 55.0559 33.1264C55.1371 33.0732 55.2048 32.9667 55.2454 32.8203ZM55.286 32.0084C55.286 31.7688 55.2183 31.5958 55.0965 31.476C54.9747 31.3562 54.8393 31.2896 54.6769 31.2896C54.5009 31.2896 54.352 31.3562 54.2301 31.476C54.1083 31.6091 54.0542 31.7821 54.0542 32.0084H55.286Z" fill="#00489A"/>
<path d="M59.7261 33.7653H58.9139V32.2213C58.9139 31.8886 58.9004 31.6889 58.8598 31.5825C58.8192 31.4893 58.765 31.4094 58.6973 31.3562C58.6296 31.3029 58.5213 31.2763 58.413 31.2763C58.2777 31.2763 58.1423 31.3163 58.034 31.3961C57.9257 31.476 57.8445 31.5691 57.8039 31.7022C57.7633 31.822 57.7497 32.0616 57.7497 32.3944V33.7653H56.9375V30.7439H57.6956V31.1832C57.9663 30.8371 58.3047 30.6641 58.7109 30.6641C58.8868 30.6641 59.0493 30.6907 59.1982 30.7572C59.3471 30.8238 59.4554 30.9036 59.5366 30.9968C59.6178 31.09 59.672 31.2098 59.6991 31.3296C59.7261 31.4494 59.7397 31.6357 59.7397 31.862V33.7653" fill="#00489A"/>
<path d="M62.1369 30.7413V31.3802H61.5819V32.6047C61.5819 32.8576 61.5819 33.004 61.5954 33.044C61.609 33.0839 61.6225 33.1105 61.6631 33.1504C61.7037 33.1771 61.7443 33.1904 61.7985 33.1904C61.8662 33.1904 61.9745 33.1638 62.1234 33.1105L62.1911 33.7228C62.0015 33.8026 61.7849 33.8426 61.5548 33.8426C61.4059 33.8426 61.2705 33.816 61.1622 33.776C61.0404 33.7228 60.9592 33.6562 60.905 33.5897C60.8509 33.5098 60.8103 33.4033 60.7967 33.2835C60.7832 33.1904 60.7697 33.004 60.7697 32.7245V31.4068H60.3906V30.7679H60.7561V30.169L61.5684 29.7031V30.7812H62.1369" fill="#00489A"/>
<path d="M62.5938 32.9135L63.406 32.7937C63.4331 32.9534 63.5143 33.0732 63.6226 33.1397C63.7309 33.2196 63.8798 33.2595 64.0693 33.2595C64.2859 33.2595 64.4348 33.2196 64.5431 33.1397C64.6108 33.0865 64.6514 33.0199 64.6514 32.9268C64.6514 32.8602 64.6379 32.8203 64.5973 32.7804C64.5566 32.7404 64.4619 32.7138 64.3265 32.6739C63.6632 32.5275 63.2435 32.3944 63.0676 32.2746C62.8239 32.1149 62.702 31.8886 62.702 31.5958C62.702 31.3296 62.8103 31.1166 63.0134 30.9303C63.23 30.7572 63.5549 30.6641 64.0016 30.6641C64.4213 30.6641 64.7326 30.7306 64.9492 30.8637C65.1523 30.9968 65.3012 31.1965 65.3824 31.4627L64.6108 31.6091C64.5837 31.4893 64.516 31.3961 64.4213 31.3429C64.3265 31.2763 64.1911 31.2497 64.0287 31.2497C63.8121 31.2497 63.6632 31.2763 63.5684 31.3429C63.5007 31.3828 63.4737 31.436 63.4737 31.5026C63.4737 31.5558 63.5007 31.6091 63.5549 31.649C63.6226 31.7022 63.8798 31.7821 64.313 31.8753C64.7462 31.9684 65.044 32.0882 65.22 32.2347C65.3959 32.3811 65.4772 32.5807 65.4772 32.8336C65.4772 33.1131 65.3553 33.3527 65.1252 33.5524C64.8815 33.752 64.5431 33.8585 64.0828 33.8585C63.6632 33.8585 63.3383 33.7786 63.0946 33.6056C62.8239 33.4326 62.6614 33.2063 62.5938 32.9135Z" fill="#00489A"/>
<path d="M72.0025 33.7598H71.0819L70.7164 32.8148H69.0108L68.6453 33.7598H67.7383L69.3763 29.5938H70.2833L72.0025 33.7598ZM70.4186 32.1227L69.823 30.5787L69.2544 32.1227H70.4186Z" fill="#00489A"/>
<path d="M73.3982 33.7598H72.5859V30.7384H73.344V31.1644C73.4794 30.9647 73.5877 30.8316 73.696 30.765C73.8043 30.6985 73.9126 30.6719 74.0479 30.6719C74.2375 30.6719 74.4134 30.7251 74.5894 30.8183L74.3458 31.5104C74.2104 31.4172 74.075 31.3773 73.9667 31.3773C73.8584 31.3773 73.7501 31.4039 73.6824 31.4705C73.6012 31.537 73.5335 31.6435 73.4929 31.8032C73.4523 31.963 73.4252 32.309 73.4252 32.8148V33.7598" fill="#00489A"/>
<path d="M76.8899 32.8203L77.7022 32.9534C77.5939 33.2462 77.4314 33.4592 77.2013 33.6189C76.9712 33.7786 76.7004 33.8452 76.362 33.8452C75.8205 33.8452 75.4279 33.6721 75.1707 33.3261C74.9677 33.0466 74.8594 32.7005 74.8594 32.2746C74.8594 31.7688 74.9947 31.3828 75.2655 31.09C75.5362 30.8105 75.8747 30.6641 76.2808 30.6641C76.741 30.6641 77.1065 30.8105 77.3637 31.1033C77.6345 31.4094 77.7563 31.862 77.7428 32.4742H75.6987C75.6987 32.7138 75.7664 32.9002 75.9017 33.0333C76.0236 33.1664 76.186 33.2329 76.3755 33.2329C76.5109 33.2329 76.6192 33.2063 76.7004 33.1264C76.7816 33.0732 76.8493 32.9667 76.8899 32.8203ZM76.9306 32.0084C76.9306 31.7688 76.8629 31.5958 76.741 31.476C76.6192 31.3562 76.4838 31.2896 76.3214 31.2896C76.1454 31.2896 75.9965 31.3562 75.8747 31.476C75.7528 31.6091 75.6987 31.7821 75.6987 32.0084H76.9306Z" fill="#00489A"/>
<path d="M79.1794 31.6623L78.4484 31.5292C78.5296 31.2364 78.6785 31.0234 78.8681 30.877C79.0711 30.7306 79.3689 30.6641 79.7751 30.6641C80.1406 30.6641 80.4113 30.704 80.5873 30.7839C80.7633 30.8637 80.8851 30.9702 80.9663 31.1033C81.034 31.2364 81.0746 31.476 81.0746 31.822L81.0611 32.7537C81.0611 33.0199 81.0746 33.2196 81.1017 33.3394C81.1288 33.4592 81.1694 33.6056 81.2506 33.7387H80.4384C80.4113 33.6855 80.3978 33.6056 80.3572 33.5124C80.3436 33.4592 80.3301 33.4326 80.3301 33.4192C80.1947 33.5524 80.0458 33.6588 79.8834 33.7254C79.7209 33.7919 79.5585 33.8319 79.3825 33.8319C79.0711 33.8319 78.8139 33.752 78.6379 33.579C78.4619 33.4059 78.3672 33.193 78.3672 32.9401C78.3672 32.7671 78.4078 32.6206 78.489 32.4875C78.5702 32.3544 78.6921 32.248 78.841 32.1814C78.9899 32.1149 79.2065 32.0483 79.4908 31.9951C79.8698 31.9285 80.127 31.862 80.2759 31.7954V31.7156C80.2759 31.5558 80.2353 31.4494 80.1541 31.3828C80.0729 31.3163 79.924 31.2896 79.7074 31.2896C79.5585 31.2896 79.4502 31.3163 79.3689 31.3695C79.3013 31.4227 79.2336 31.5292 79.1794 31.6623ZM80.2759 32.3145C80.1676 32.3544 80.0052 32.3944 79.7751 32.4343C79.5449 32.4742 79.4096 32.5275 79.3283 32.5807C79.22 32.6606 79.1659 32.7537 79.1659 32.8602C79.1659 32.9667 79.2065 33.0732 79.2877 33.153C79.3689 33.2329 79.4772 33.2728 79.6126 33.2728C79.7615 33.2728 79.8969 33.2196 80.0323 33.1264C80.127 33.0599 80.1947 32.9667 80.2218 32.8602C80.2489 32.7937 80.2489 32.6606 80.2489 32.4742V32.3145H80.2759Z" fill="#00489A"/>
<path d="M18.0585 13.2118H12.5083C12.5083 12.32 12.4 11.721 12.1834 11.4016C11.8585 10.949 10.938 10.7228 9.44892 10.7228C8.00045 10.7228 7.03931 10.8559 6.56551 11.1088C6.09171 11.375 5.86158 11.9473 5.86158 12.8125C5.86158 13.6111 6.06464 14.1302 6.48429 14.3831C6.78211 14.5561 7.17468 14.6626 7.66202 14.7025L8.7856 14.7824C11.1817 14.9421 12.6843 15.0486 13.2799 15.1151C15.1751 15.3015 16.5559 15.7939 17.4088 16.6058C18.0856 17.2314 18.4782 18.0566 18.6136 19.0682C18.6812 19.6672 18.7219 20.3593 18.7219 21.118C18.7219 22.8749 18.5459 24.166 18.2074 24.9779C17.5847 26.4686 16.204 27.4137 14.038 27.813C13.131 27.9727 11.7502 28.0658 9.88211 28.0658C6.76857 28.0658 4.60263 27.8795 3.38428 27.5201C1.88166 27.0676 0.893451 26.1625 0.406114 24.7916C0.135371 24.0329 0 22.7684 0 20.9849H5.55023C5.55023 21.1845 5.55023 21.3309 5.55023 21.4374C5.55023 22.3824 5.83451 22.9947 6.37599 23.2609C6.75503 23.4472 7.22883 23.5404 7.77032 23.5537H9.81442C10.8568 23.5537 11.5201 23.5005 11.8044 23.394C12.3188 23.1943 12.6437 22.8749 12.8061 22.4357C12.8874 22.1695 12.928 21.8101 12.928 21.3842C12.928 20.4258 12.576 19.8402 11.8585 19.6272C11.5878 19.5474 10.3559 19.4276 8.13582 19.2812C6.36245 19.1614 5.13057 19.0416 4.44018 18.9218C2.6262 18.5891 1.40786 17.8969 0.798692 16.8587C0.270744 15.967 0 14.6226 0 12.8258C0 11.4548 0.14891 10.3634 0.43319 9.53818C0.71747 8.71295 1.19127 8.08737 1.82751 7.66145C2.76158 7.00925 3.96638 6.60995 5.41486 6.50347C6.6332 6.39699 7.97337 6.34375 9.46246 6.34375C11.7908 6.34375 13.4559 6.47685 14.4441 6.74305C16.8673 7.38194 18.0721 9.16549 18.0721 12.107C18.1127 12.3732 18.0992 12.7326 18.0585 13.2118Z" fill="#00489A"/>
<path d="M42.4922 28.0809V6.26562H51.1966H52.5638H53.6197C55.1494 6.26562 56.3136 6.38542 57.1123 6.63831C58.9398 7.19733 60.1717 8.35531 60.7944 10.0989C61.1193 11.0173 61.2817 12.3883 61.2817 14.2384C61.2817 16.4479 61.1057 18.0451 60.7402 19.0167C60.0228 20.9334 58.5607 22.0381 56.3407 22.3176C56.0835 22.3575 54.9734 22.3975 53.0105 22.4241L52.0223 22.4507H48.4621V28.0809H42.4922ZM48.4621 17.3796H52.1848C53.3625 17.3396 54.08 17.2465 54.3372 17.1134C54.6891 16.927 54.9328 16.541 55.0411 15.9687C55.1088 15.5827 55.1494 15.0237 55.1494 14.265C55.1494 13.3466 55.0817 12.6545 54.9193 12.2152C54.7027 11.5897 54.1883 11.2037 53.376 11.0706C53.2136 11.044 52.8345 11.044 52.2118 11.044H48.435V17.3796H48.4621Z" fill="#00489A"/>
<path d="M74.0358 24.2985H66.0489L64.9794 28.0653H58.793L65.4668 6.25H74.469L81.224 28.0653H75.1729L74.0358 24.2985ZM72.8445 20.0526L70.0423 10.6024L67.3214 20.0526H72.8445Z" fill="#00489A"/>
<path d="M34.2477 9.32811C36.7114 9.32811 38.9044 10.4462 40.3529 12.1898L41.6389 9.47452C39.6219 7.6111 36.8874 6.45312 33.8686 6.45312C29.1577 6.45312 25.1372 9.24825 23.4856 13.2014H20.9813L19.4922 16.3292H22.7276C22.7005 16.622 22.687 16.9149 22.687 17.2077C22.687 17.5671 22.714 17.9131 22.7411 18.2725H21.1166L19.6276 21.4004H23.5533C25.2455 25.2603 29.2254 27.9623 33.8551 27.9623C36.1835 27.9623 38.3494 27.2701 40.1499 26.0988V22.2655C38.7014 23.8894 36.5896 24.9009 34.2341 24.9009C31.4861 24.9009 29.0629 23.5034 27.6415 21.3871H35.8721L37.3477 18.2592H26.4503C26.3961 17.8865 26.3555 17.5005 26.3555 17.1145C26.3555 16.8483 26.3691 16.5821 26.3961 16.3292H38.2817L39.7708 13.2014H27.4385C28.8057 10.8854 31.3372 9.32811 34.2477 9.32811Z" fill="#FDC300"/>
<path d="M34.25 9.4207C36.5919 9.4207 38.7985 10.4456 40.2875 12.2557L40.3823 12.3755L40.45 12.2424L41.736 9.52718L41.7631 9.46063L41.7089 9.40739C39.5971 7.43749 36.8085 6.35938 33.8709 6.35938C31.5696 6.35938 29.3631 7.02488 27.4814 8.27603C25.6403 9.48725 24.2325 11.1909 23.4067 13.1741L23.5015 13.1209H20.9836H20.9159L20.8888 13.1741L19.3997 16.302L19.332 16.4351H19.4809H22.7163L22.6216 16.3286C22.5945 16.6481 22.5809 16.9409 22.5809 17.2071C22.5809 17.5532 22.5945 17.9125 22.6351 18.2852L22.7299 18.1787H21.1054H21.0512L21.0242 18.232L19.5351 21.3599L19.4674 21.493H19.6163H23.5421L23.4473 21.4397C25.2207 25.4594 29.2954 28.0548 33.8439 28.0548C36.1181 28.0548 38.3111 27.4026 40.1928 26.1781L40.2334 26.1515V26.0983V22.2649V22.0121L40.0709 22.1984C38.5954 23.8489 36.4701 24.8072 34.2364 24.8072C31.6102 24.8072 29.1735 23.5161 27.7251 21.3466L27.6438 21.493H35.8744H35.9286L35.9556 21.4397L37.4312 18.3118L37.4989 18.1787H37.3771H26.4661L26.5609 18.2586C26.5067 17.8859 26.4796 17.4999 26.4796 17.1139C26.4796 16.861 26.4932 16.5948 26.5203 16.342L26.4255 16.4218H38.3111H38.3788L38.4059 16.3686L39.8814 13.2407L39.9491 13.1076H39.8002H27.4408L27.522 13.254C28.9163 10.8848 31.4884 9.4207 34.25 9.4207ZM27.4408 13.2939H39.7867L39.7054 13.1608L38.2164 16.2887L38.2976 16.2355H26.412H26.3307L26.3172 16.3153C26.2901 16.5815 26.2766 16.8477 26.2766 17.1139C26.2766 17.4999 26.3037 17.8859 26.3713 18.2852L26.3849 18.3651H26.4661H37.3771L37.2958 18.232L35.8203 21.3599L35.9015 21.3066H27.6709H27.4949L27.5897 21.453C29.0652 23.6758 31.5696 25.0068 34.25 25.0068C36.5377 25.0068 38.7172 24.0352 40.2334 22.3448L40.0709 22.2783V26.1116L40.1116 26.0317C38.2705 27.2429 36.1046 27.8818 33.8709 27.8818C29.4037 27.8818 25.3967 25.3263 23.6504 21.3732L23.6233 21.3199H23.5692H19.6434L19.7381 21.453L21.2137 18.3252L21.1325 18.3784H22.7569H22.8652L22.8517 18.2719C22.8111 17.9259 22.7975 17.5665 22.7975 17.2204C22.7975 16.9542 22.8111 16.6747 22.8382 16.3553L22.8517 16.2488H22.7434H19.4945L19.5757 16.3819L21.0648 13.254L20.9836 13.3072H23.4879H23.5556L23.5827 13.254C24.3949 11.2974 25.7892 9.63366 27.5897 8.43575C29.4443 7.21122 31.6102 6.55903 33.8709 6.55903C36.7543 6.55903 39.5024 7.62383 41.5871 9.5538L41.56 9.44732L40.274 12.1626L40.4364 12.136C38.9203 10.2992 36.6596 9.23436 34.25 9.23436C31.4207 9.23436 28.781 10.7384 27.3596 13.1608L27.2783 13.2939H27.4408Z" fill="#00489A"/>
</g>
<defs>
<clipPath id="clip0_1_10850">
<rect width="81.25" height="28.75" fill="white" transform="translate(0 6.25)"/>
</clipPath>
</defs>
</svg>
